<?xml version="1.0" encoding="utf-8"?>
<!-- Uploaded to: SVG Repo, www.svgrepo.com, Generator: SVG Repo Mixer Tools -->
<svg fill="#000000" width="800px" height="800px" viewBox="0 0 32 32" version="1.1" xmlns="http://www.w3.org/2000/svg" >
<title>left-round</title>

<path d="M0 16q0-3.232 1.28-6.208t3.392-5.12 5.12-3.392 6.208-1.28q3.264 0 6.24 1.28t5.088 3.392 3.392 5.12 1.28 6.208q0 3.264-1.28 6.208t-3.392 5.12-5.12 3.424-6.208 1.248-6.208-1.248-5.12-3.424-3.392-5.12-1.28-6.208zM4 16q0 3.264 1.6 6.048t4.384 4.352 6.016 1.6 6.016-1.6 4.384-4.352 1.6-6.048-1.6-6.016-4.384-4.352-6.016-1.632-6.016 1.632-4.384 4.352-1.6 6.016zM8 16q0-0.832 0.576-1.408l4-4q0.448-0.416 1.024-0.544t1.152 0.128q0.576 0.224 0.928 0.704t0.32 1.12v2.016h6.016q0.8 0 1.408 0.576t0.576 1.408-0.576 1.44-1.408 0.576h-6.016v1.984q0 0.608-0.32 1.12t-0.928 0.736-1.152 0.128-1.024-0.576l-4-4q-0.576-0.576-0.576-1.408z" stroke="rgb(82, 19, 206)"></path>
</svg>